<?xml version="1.0" encoding="UTF-8" standalone="no"?>
<!-- Created with Inkscape (http://www.inkscape.org/) -->

<svg
   xmlns:dc="http://purl.org/dc/elements/1.1/"
   xmlns:cc="http://creativecommons.org/ns#"
   xmlns:rdf="http://www.w3.org/1999/02/22-rdf-syntax-ns#"
   xmlns:svg="http://www.w3.org/2000/svg"
   xmlns="http://www.w3.org/2000/svg"
   xmlns:sodipodi="http://sodipodi.sourceforge.net/DTD/sodipodi-0.dtd"
   xmlns:inkscape="http://www.inkscape.org/namespaces/inkscape"
   width="1200"
   height="600"
   viewBox="0 0 1200 600"
   version="1.1"
   id="svg3660"
   inkscape:version="0.92.4 5da689c313, 2019-01-14"
   sodipodi:docname="search.svg">
  <defs
     id="defs3654">
    <clipPath
       clipPathUnits="userSpaceOnUse"
       id="clipPath56767">
      <path
         sodipodi:nodetypes="ccccc"
         inkscape:connector-curvature="0"
         id="path56769"
         d="M 228.45991,29.202459 H 1062.0337 V 319.48853 c -330.23641,0 -408.68316,175.76954 -833.57379,175.76954 z"
         style="color:#000000;display:inline;overflow:visible;visibility:visible;fill:#babdb6;stroke:none;stroke-width:1;marker:none;enable-background:accumulate" />
    </clipPath>
    <linearGradient
       id="linearGradient5716-3-1-9">
      <stop
         style="stop-color:#000000;stop-opacity:1;"
         offset="0"
         id="stop5718-0-3-4" />
      <stop
         style="stop-color:#484848;stop-opacity:1;"
         offset="1"
         id="stop5720-0-39-8" />
    </linearGradient>
    <clipPath
       clipPathUnits="userSpaceOnUse"
       id="clipPath6279-7-9-7-97-8">
      <rect
         style="color:#bebebe;display:inline;overflow:visible;visibility:visible;fill:#bebebe;fill-opacity:1;fill-rule:nonzero;stroke:none;stroke-width:2;marker:none"
         id="rect6281-1-9-2-7-4"
         width="3.8250003"
         height="6.3750005"
         x="26.85"
         y="220.75" />
    </clipPath>
    <clipPath
       clipPathUnits="userSpaceOnUse"
       id="clipPath6265-3-4-4-6-1">
      <rect
         style="color:#bebebe;display:inline;overflow:visible;visibility:visible;fill:#bebebe;fill-opacity:1;fill-rule:nonzero;stroke:none;stroke-width:2;marker:none"
         id="rect6267-1-9-2-7-4"
         width="2.8977277"
         height="5.21591"
         x="26.96591"
         y="221.32954" />
    </clipPath>
    <clipPath
       clipPathUnits="userSpaceOnUse"
       id="clipPath6259-8-81-2-3-7">
      <rect
         style="color:#bebebe;display:inline;overflow:visible;visibility:visible;fill:#bebebe;fill-opacity:1;stroke:none;stroke-width:2;marker:none"
         id="rect6261-6-6-2-6-1"
         width="1.8762827"
         height="4.8734746"
         x="26.998718"
         y="221.50153" />
    </clipPath>
    <clipPath
       clipPathUnits="userSpaceOnUse"
       id="clipPath987-6">
      <circle
         r="60"
         cy="236"
         cx="63.999996"
         id="circle989-3"
         style="display:inline;opacity:1;fill:#3584e4;fill-opacity:1;stroke:none;stroke-width:4.28571415;stroke-linecap:butt;stroke-linejoin:miter;stroke-miterlimit:4;stroke-dasharray:none;stroke-dashoffset:0;stroke-opacity:1;marker:none;marker-start:none;marker-mid:none;marker-end:none;paint-order:normal;enable-background:new" />
    </clipPath>
  </defs>
  <sodipodi:namedview
     id="base"
     pagecolor="#e5e5e5"
     bordercolor="#666666"
     borderopacity="1.0"
     inkscape:pageopacity="1"
     inkscape:pageshadow="2"
     inkscape:zoom="1"
     inkscape:cx="359.90744"
     inkscape:cy="496.48428"
     inkscape:document-units="px"
     inkscape:current-layer="g909"
     showgrid="false"
     fit-margin-top="0"
     fit-margin-left="0"
     fit-margin-right="0"
     fit-margin-bottom="0"
     units="px"
     inkscape:showpageshadow="false"
     borderlayer="true"
     inkscape:window-width="3440"
     inkscape:window-height="1376"
     inkscape:window-x="0"
     inkscape:window-y="639"
     inkscape:window-maximized="1">
    <inkscape:grid
       type="xygrid"
       id="grid866" />
  </sodipodi:namedview>
  <metadata
     id="metadata3657">
    <rdf:RDF>
      <cc:Work
         rdf:about="">
        <dc:format>image/svg+xml</dc:format>
        <dc:type
           rdf:resource="http://purl.org/dc/dcmitype/StillImage" />
        <dc:title></dc:title>
      </cc:Work>
    </rdf:RDF>
  </metadata>
  <g
     inkscape:label="Layer 1"
     inkscape:groupmode="layer"
     id="layer1"
     transform="translate(82.06078,156.18534)">
    <g
       id="g909"
       transform="matrix(2,0,0,2,67.11449,-416.98948)">
      <g
         clip-path="url(#clipPath56767)"
         inkscape:export-ydpi="90"
         inkscape:export-xdpi="90"
         inkscape:export-filename="/home/jimmac/gfx/redhat/redhat-ux/Products/RHEL/RHEL7/video-jingles/tex/overview.png"
         id="g3546"
         style="display:inline"
         transform="matrix(0.59338908,0,0,0.59338908,-153.47487,115.36435)">
        <g
           style="display:inline"
           transform="matrix(4,0,0,4,172,-591)"
           id="g3524"
           inkscape:label="view-grid">
          <rect
             inkscape:label="a"
             y="276"
             x="20"
             height="16"
             width="16"
             id="rect3504"
             style="color:#bebebe;display:inline;overflow:visible;visibility:visible;fill:none;stroke:none;stroke-width:1;marker:none" />
          <rect
             style="color:#000000;display:inline;overflow:visible;visibility:visible;fill:#000000;fill-opacity:1;fill-rule:nonzero;stroke:none;stroke-width:1;marker:none;enable-background:new"
             id="rect3506"
             width="2.0000002"
             height="2"
             x="23.0623"
             y="279"
             rx="0.38461545"
             ry="0.37878788" />
          <rect
             ry="0.37878788"
             rx="0.38461545"
             y="279"
             x="27.0623"
             height="2"
             width="2.0000002"
             id="rect3508"
             style="color:#000000;display:inline;overflow:visible;visibility:visible;fill:#000000;fill-opacity:1;fill-rule:nonzero;stroke:none;stroke-width:1;marker:none;enable-background:new" />
          <rect
             style="color:#000000;display:inline;overflow:visible;visibility:visible;fill:#000000;fill-opacity:1;fill-rule:nonzero;stroke:none;stroke-width:1;marker:none;enable-background:new"
             id="rect3510"
             width="2.0000002"
             height="2"
             x="31.0623"
             y="279"
             rx="0.38461545"
             ry="0.37878788" />
          <rect
             ry="0.37878788"
             rx="0.38461545"
             y="283.01562"
             x="23.0623"
             height="2"
             width="2.0000002"
             id="rect3512"
             style="color:#000000;display:inline;overflow:visible;visibility:visible;fill:#000000;fill-opacity:1;fill-rule:nonzero;stroke:none;stroke-width:1;marker:none;enable-background:new" />
          <rect
             style="color:#000000;display:inline;overflow:visible;visibility:visible;fill:#000000;fill-opacity:1;fill-rule:nonzero;stroke:none;stroke-width:1;marker:none;enable-background:new"
             id="rect3514"
             width="2.0000002"
             height="2"
             x="27.0623"
             y="283.01562"
             rx="0.38461545"
             ry="0.37878788" />
          <rect
             ry="0.37878788"
             rx="0.38461545"
             y="283.01562"
             x="31.0623"
             height="2"
             width="2.0000002"
             id="rect3516"
             style="color:#000000;display:inline;overflow:visible;visibility:visible;fill:#000000;fill-opacity:1;fill-rule:nonzero;stroke:none;stroke-width:1;marker:none;enable-background:new" />
          <rect
             style="color:#000000;display:inline;overflow:visible;visibility:visible;fill:#000000;fill-opacity:1;fill-rule:nonzero;stroke:none;stroke-width:1;marker:none;enable-background:new"
             id="rect3518"
             width="2.0000002"
             height="2"
             x="23.0623"
             y="287"
             rx="0.38461545"
             ry="0.37878788" />
          <rect
             ry="0.37878788"
             rx="0.38461545"
             y="287"
             x="27.0623"
             height="2"
             width="2.0000002"
             id="rect3520"
             style="color:#000000;display:inline;overflow:visible;visibility:visible;fill:#000000;fill-opacity:1;fill-rule:nonzero;stroke:none;stroke-width:1;marker:none;enable-background:new" />
          <rect
             style="color:#000000;display:inline;overflow:visible;visibility:visible;fill:#000000;fill-opacity:1;fill-rule:nonzero;stroke:none;stroke-width:1;marker:none;enable-background:new"
             id="rect3522"
             width="2.0000002"
             height="2"
             x="31.0623"
             y="287"
             rx="0.38461545"
             ry="0.37878788" />
        </g>
        <path
           style="color:#000000;display:inline;overflow:visible;visibility:visible;fill:#ffffff;fill-opacity:1;fill-rule:nonzero;stroke:none;stroke-width:3;marker:none;enable-background:new"
           d="m 239.06066,57.414214 h 800.87864 v 51.485276 c 0,0 -4.0279,-10.606597 -11.0989,-10.96015 L 249,99 c -4.59619,-0.353553 -9.93934,5.5 -9.93934,5.5 z"
           id="path3526"
           inkscape:connector-curvature="0"
           sodipodi:nodetypes="ccccccc" />
        <g
           id="g3542"
           transform="translate(11)">
          <rect
             y="58.149738"
             x="229.00078"
             height="599.99841"
             width="800.74323"
             id="rect3528"
             style="color:#000000;display:inline;overflow:visible;visibility:visible;fill:#ffffff;stroke:#3584e4;stroke-width:3.37203074;stroke-miterlimit:4;stroke-dasharray:none;stroke-opacity:1;marker:none;enable-background:new" />
          <path
             sodipodi:nodetypes="cccc"
             inkscape:connector-curvature="0"
             d="m 1028.199,109.00297 c 0,-5.89806 -4.7813,-10.679382 -10.6794,-10.679382 H 239.52029 c -5.89809,0 -10.6794,4.781322 -10.6794,10.679382"
             style="fill:none;stroke:#3584e4;stroke-width:2.37319922px;stroke-linecap:round;stroke-linejoin:miter;stroke-opacity:1"
             id="path3530" />
          <text
             id="text3534"
             y="86.187378"
             x="628.8465"
             style="font-style:normal;font-variant:normal;font-weight:bold;font-stretch:normal;line-height:0%;font-family:Cantarell;-inkscape-font-specification:'Cantarell Bold';text-align:center;letter-spacing:0px;word-spacing:0px;writing-mode:lr-tb;text-anchor:middle;fill:#3584e4;fill-opacity:1;stroke:none"
             xml:space="preserve"><tspan
               style="font-size:21.26189423px;line-height:1.25;fill:#3584e4"
               y="86.187378"
               x="628.8465"
               id="tspan3532"
               sodipodi:role="line">14:30</tspan></text>
          <text
             id="text3540"
             y="86.187378"
             x="238.05931"
             style="font-style:normal;font-variant:normal;font-weight:bold;font-stretch:normal;line-height:0%;font-family:Cantarell;-inkscape-font-specification:'Cantarell Bold';text-align:start;letter-spacing:0px;word-spacing:0px;writing-mode:lr-tb;text-anchor:start;fill:#3584e4;fill-opacity:1;stroke:none"
             xml:space="preserve"><tspan
               style="font-size:21.26189423px;line-height:1.25;fill:#3584e4"
               y="86.187378"
               x="238.05931"
               id="tspan3538"
               sodipodi:role="line">Activities</tspan></text>
        </g>
        <rect
           y="129.89575"
           x="733.91248"
           height="32.361847"
           width="32.361851"
           id="rect3544"
           style="color:#000000;display:inline;overflow:visible;visibility:visible;opacity:0.70638272;fill:none;stroke:none;stroke-width:2;marker:none;enable-background:accumulate" />
      </g>
      <g
         id="g3584"
         transform="matrix(3.0329473,0,0,3.0329473,-3054.738,443.57368)">
        <path
           inkscape:connector-curvature="0"
           style="color:#bebebe;display:inline;overflow:visible;visibility:visible;fill:#3584e4;fill-opacity:1;fill-rule:nonzero;stroke:none;stroke-width:0.26458335;marker:none"
           d="m 1143.9374,-93.49403 h 0.6573 l 0.7855,-0.79375 0.1447,0.004 v 2.91042 l -0.1258,2.2e-4 -0.8044,-0.7981 h -0.6573 z"
           id="path3564"
           sodipodi:nodetypes="ccccccccc" />
        <path
           style="color:#000000;font-style:normal;font-variant:normal;font-weight:normal;font-stretch:normal;font-size:medium;line-height:normal;font-family:sans-serif;font-variant-ligatures:normal;font-variant-position:normal;font-variant-caps:normal;font-variant-numeric:normal;font-variant-alternates:normal;font-feature-settings:normal;text-indent:0;text-align:start;text-decoration:none;text-decoration-line:none;text-decoration-style:solid;text-decoration-color:#000000;letter-spacing:normal;word-spacing:normal;text-transform:none;writing-mode:lr-tb;direction:ltr;text-orientation:mixed;dominant-baseline:auto;baseline-shift:baseline;text-anchor:start;white-space:normal;shape-padding:0;clip-rule:nonzero;display:inline;overflow:visible;visibility:visible;opacity:1;isolation:auto;mix-blend-mode:normal;color-interpolation:sRGB;color-interpolation-filters:linearRGB;solid-color:#000000;solid-opacity:1;vector-effect:none;fill:#3584e4;fill-opacity:1;fill-rule:nonzero;stroke:none;stroke-width:2.54999995;stroke-linecap:round;stroke-linejoin:miter;stroke-miterlimit:4;stroke-dasharray:none;stroke-dashoffset:0;stroke-opacity:1;color-rendering:auto;image-rendering:auto;shape-rendering:auto;text-rendering:auto;enable-background:accumulate"
           d="m 27.177734,220.39648 a 1.2751275,1.2751275 0 0 0 -0.888672,2.18946 c 0.35901,0.35901 0.560547,0.84384 0.560547,1.35156 0,0.50772 -0.201537,0.99255 -0.560547,1.35156 a 1.2761078,1.2761078 0 1 0 1.804688,1.80469 c 0.836535,-0.83653 1.306641,-1.97321 1.306641,-3.15625 0,-1.18304 -0.470106,-2.31972 -1.306641,-3.15625 a 1.2751275,1.2751275 0 0 0 -0.916016,-0.38477 z"
           clip-path="url(#clipPath6279-7-9-7-97-8)"
           id="path3566"
           inkscape:connector-curvature="0"
           transform="matrix(0.20751641,0,0,0.20751641,1140.2176,-139.30325)" />
        <path
           style="color:#000000;font-style:normal;font-variant:normal;font-weight:normal;font-stretch:normal;font-size:medium;line-height:normal;font-family:sans-serif;font-variant-ligatures:normal;font-variant-position:normal;font-variant-caps:normal;font-variant-numeric:normal;font-variant-alternates:normal;font-feature-settings:normal;text-indent:0;text-align:start;text-decoration:none;text-decoration-line:none;text-decoration-style:solid;text-decoration-color:#000000;letter-spacing:normal;word-spacing:normal;text-transform:none;writing-mode:lr-tb;direction:ltr;text-orientation:mixed;dominant-baseline:auto;baseline-shift:baseline;text-anchor:start;white-space:normal;shape-padding:0;clip-rule:nonzero;display:inline;overflow:visible;visibility:visible;opacity:1;isolation:auto;mix-blend-mode:normal;color-interpolation:sRGB;color-interpolation-filters:linearRGB;solid-color:#000000;solid-opacity:1;vector-effect:none;fill:#3584e4;fill-opacity:1;fill-rule:nonzero;stroke:none;stroke-width:1.15909004;stroke-linecap:round;stroke-linejoin:miter;stroke-miterlimit:4;stroke-dasharray:none;stroke-dashoffset:0;stroke-opacity:1;color-rendering:auto;image-rendering:auto;shape-rendering:auto;text-rendering:auto;enable-background:accumulate"
           d="m 27.185547,221.09766 a 0.57960298,0.57960298 0 0 0 -0.404297,0.99609 c 0.489244,0.48924 0.763672,1.15185 0.763672,1.84375 0,0.6919 -0.274428,1.35451 -0.763672,1.84375 a 0.58004747,0.58004747 0 1 0 0.820312,0.82031 c 0.706301,-0.7063 1.103516,-1.6652 1.103516,-2.66406 0,-0.99886 -0.397215,-1.95776 -1.103516,-2.66406 a 0.57960298,0.57960298 0 0 0 -0.416015,-0.17578 z"
           clip-path="url(#clipPath6265-3-4-4-6-1)"
           id="path3568"
           inkscape:connector-curvature="0"
           transform="matrix(0.45653589,0,0,0.45653589,1134.0077,-195.0681)" />
        <path
           style="color:#000000;font-style:normal;font-variant:normal;font-weight:normal;font-stretch:normal;font-size:medium;line-height:normal;font-family:sans-serif;font-variant-ligatures:normal;font-variant-position:normal;font-variant-caps:normal;font-variant-numeric:normal;font-variant-alternates:normal;font-feature-settings:normal;text-indent:0;text-align:start;text-decoration:none;text-decoration-line:none;text-decoration-style:solid;text-decoration-color:#000000;letter-spacing:normal;word-spacing:normal;text-transform:none;writing-mode:lr-tb;direction:ltr;text-orientation:mixed;dominant-baseline:auto;baseline-shift:baseline;text-anchor:start;white-space:normal;shape-padding:0;clip-rule:nonzero;display:inline;overflow:visible;visibility:visible;opacity:0.35;isolation:auto;mix-blend-mode:normal;color-interpolation:sRGB;color-interpolation-filters:linearRGB;solid-color:#000000;solid-opacity:1;vector-effect:none;fill:#3584e4;fill-opacity:1;fill-rule:nonzero;stroke:none;stroke-width:0.75;stroke-linecap:round;stroke-linejoin:miter;stroke-miterlimit:4;stroke-dasharray:none;stroke-dashoffset:0;stroke-opacity:1;color-rendering:auto;image-rendering:auto;shape-rendering:auto;text-rendering:auto;enable-background:accumulate"
           d="m 27.1875,221.30469 a 0.3750375,0.3750375 0 0 0 -0.261719,0.64453 c 0.527548,0.52755 0.824219,1.24221 0.824219,1.98828 0,0.74607 -0.296671,1.46073 -0.824219,1.98828 a 0.37565048,0.37565048 0 1 0 0.53125,0.53125 C 28.125028,225.78903 28.5,224.88219 28.5,223.9375 c 0,-0.94469 -0.374972,-1.85153 -1.042969,-2.51953 A 0.3750375,0.3750375 0 0 0 27.1875,221.30469 Z"
           clip-path="url(#clipPath6259-8-81-2-3-7)"
           id="path3570"
           inkscape:connector-curvature="0"
           transform="matrix(0.70555643,0,0,0.70555643,1127.7978,-250.83274)" />
        <path
           style="color:#000000;font-style:normal;font-variant:normal;font-weight:normal;font-stretch:normal;font-size:medium;line-height:normal;font-family:sans-serif;font-variant-ligatures:normal;font-variant-position:normal;font-variant-caps:normal;font-variant-numeric:normal;font-variant-alternates:normal;font-feature-settings:normal;text-indent:0;text-align:start;text-decoration:none;text-decoration-line:none;text-decoration-style:solid;text-decoration-color:#000000;letter-spacing:normal;word-spacing:normal;text-transform:none;writing-mode:lr-tb;direction:ltr;text-orientation:mixed;dominant-baseline:auto;baseline-shift:baseline;text-anchor:start;white-space:normal;shape-padding:0;clip-rule:nonzero;display:inline;overflow:visible;visibility:visible;opacity:1;isolation:auto;mix-blend-mode:normal;color-interpolation:sRGB;color-interpolation-filters:linearRGB;solid-color:#000000;solid-opacity:1;vector-effect:none;fill:#3584e4;fill-opacity:1;fill-rule:nonzero;stroke:none;stroke-width:0.5291667;stroke-linecap:round;stroke-linejoin:miter;stroke-miterlimit:4;stroke-dasharray:none;stroke-dashoffset:0;stroke-opacity:1;marker:none;color-rendering:auto;image-rendering:auto;shape-rendering:auto;text-rendering:auto;enable-background:accumulate"
           d="m 1150.5623,-94.34073 a 0.26460982,0.26460982 0 0 0 -0.144,0.0373 c -0.7236,0.41878 -1.0776,1.27435 -0.8615,2.08206 0.2161,0.80771 0.9503,1.3718 1.7863,1.37303 0.8361,10e-4 1.5714,-0.56053 1.7899,-1.3676 0.2185,-0.80707 -0.133,-1.66387 -0.8554,-2.08477 a 0.26460982,0.26460982 0 1 0 -0.2662,0.45716 c 0.5178,0.30171 0.7675,0.91045 0.6109,1.48907 -0.1567,0.57862 -0.6791,0.97807 -1.2784,0.97719 -0.5992,-8.8e-4 -1.1206,-0.40161 -1.2756,-0.98069 -0.155,-0.57908 0.096,-1.18732 0.6151,-1.48751 a 0.26460982,0.26460982 0 0 0 -0.1211,-0.49519 z"
           id="path3572"
           inkscape:connector-curvature="0" />
        <path
           style="color:#000000;font-style:normal;font-variant:normal;font-weight:normal;font-stretch:normal;font-size:medium;line-height:normal;font-family:sans-serif;font-variant-ligatures:normal;font-variant-position:normal;font-variant-caps:normal;font-variant-numeric:normal;font-variant-alternates:normal;font-feature-settings:normal;text-indent:0;text-align:start;text-decoration:none;text-decoration-line:none;text-decoration-style:solid;text-decoration-color:#000000;letter-spacing:normal;word-spacing:normal;text-transform:none;writing-mode:lr-tb;direction:ltr;text-orientation:mixed;dominant-baseline:auto;baseline-shift:baseline;text-anchor:start;white-space:normal;shape-padding:0;clip-rule:nonzero;display:inline;overflow:visible;visibility:visible;opacity:1;isolation:auto;mix-blend-mode:normal;color-interpolation:sRGB;color-interpolation-filters:linearRGB;solid-color:#000000;solid-opacity:1;vector-effect:none;fill:#3584e4;fill-opacity:1;fill-rule:nonzero;stroke:none;stroke-width:0.5291667;stroke-linecap:round;stroke-linejoin:miter;stroke-miterlimit:4;stroke-dasharray:none;stroke-dashoffset:0;stroke-opacity:1;color-rendering:auto;image-rendering:auto;shape-rendering:auto;text-rendering:auto;enable-background:accumulate"
           d="m 1151.3416,-94.82079 a 0.26460982,0.26460982 0 0 0 -0.2604,0.26855 v 1.32297 a 0.26460982,0.26460982 0 1 0 0.5289,0 v -1.32297 a 0.26460982,0.26460982 0 0 0 -0.2685,-0.26855 z"
           id="path3574"
           inkscape:connector-curvature="0" />
        <path
           inkscape:connector-curvature="0"
           style="color:#bebebe;font-style:normal;font-variant:normal;font-weight:normal;font-stretch:normal;font-size:medium;line-height:normal;font-family:Sans;-inkscape-font-specification:Sans;text-indent:0;text-align:start;text-decoration:none;text-decoration-line:none;letter-spacing:normal;word-spacing:normal;text-transform:none;writing-mode:lr-tb;direction:ltr;baseline-shift:baseline;text-anchor:start;display:inline;overflow:visible;visibility:visible;fill:#3584e4;fill-opacity:1;stroke:none;stroke-width:0.5291667;marker:none;enable-background:accumulate"
           d="m 1139.128,-94.53059 c -0.2519,0 -0.463,0.21109 -0.463,0.46303 v 1.19062 c 0,0.25194 0.2111,0.46302 0.463,0.46302 h 0.033 l -0.2067,0.41341 -0.1902,0.38034 h 0.43 1.5875 0.4299 l -0.1901,-0.38034 -0.2067,-0.41341 h 0.033 c 0.2519,0 0.463,-0.21108 0.463,-0.46302 v -1.19062 c 0,-0.25194 -0.2111,-0.46303 -0.463,-0.46303 z m 0.066,0.52917 h 1.5875 v 1.05833 h -1.5875 z"
           id="path3576" />
        <path
           style="color:#bebebe;font-style:normal;font-variant:normal;font-weight:normal;font-stretch:normal;font-size:medium;line-height:normal;font-family:sans-serif;font-variant-ligatures:normal;font-variant-position:normal;font-variant-caps:normal;font-variant-numeric:normal;font-variant-alternates:normal;font-feature-settings:normal;text-indent:0;text-align:start;text-decoration:none;text-decoration-line:none;text-decoration-style:solid;text-decoration-color:#000000;letter-spacing:normal;word-spacing:normal;text-transform:none;writing-mode:lr-tb;direction:ltr;text-orientation:mixed;dominant-baseline:auto;baseline-shift:baseline;text-anchor:start;white-space:normal;shape-padding:0;clip-rule:nonzero;display:inline;overflow:visible;visibility:visible;opacity:1;isolation:auto;mix-blend-mode:normal;color-interpolation:sRGB;color-interpolation-filters:linearRGB;solid-color:#000000;solid-opacity:1;vector-effect:none;fill:#3584e4;fill-opacity:1;fill-rule:nonzero;stroke:none;stroke-width:0.5291667;stroke-linecap:butt;stroke-linejoin:miter;stroke-miterlimit:4;stroke-dasharray:none;stroke-dashoffset:0;stroke-opacity:1;marker:none;color-rendering:auto;image-rendering:auto;shape-rendering:auto;text-rendering:auto;enable-background:accumulate"
           d="m 1139.7232,-92.14924 v 1.0583 h 0.5293 v -1.0583 z"
           id="path3578"
           inkscape:connector-curvature="0" />
        <path
           style="color:#bebebe;font-style:normal;font-variant:normal;font-weight:normal;font-stretch:normal;font-size:medium;line-height:normal;font-family:sans-serif;font-variant-ligatures:normal;font-variant-position:normal;font-variant-caps:normal;font-variant-numeric:normal;font-variant-alternates:normal;font-feature-settings:normal;text-indent:0;text-align:start;text-decoration:none;text-decoration-line:none;text-decoration-style:solid;text-decoration-color:#000000;letter-spacing:normal;word-spacing:normal;text-transform:none;writing-mode:lr-tb;direction:ltr;text-orientation:mixed;dominant-baseline:auto;baseline-shift:baseline;text-anchor:start;white-space:normal;shape-padding:0;clip-rule:nonzero;display:inline;overflow:visible;visibility:visible;opacity:1;isolation:auto;mix-blend-mode:normal;color-interpolation:sRGB;color-interpolation-filters:linearRGB;solid-color:#000000;solid-opacity:1;vector-effect:none;fill:#3584e4;fill-opacity:1;fill-rule:nonzero;stroke:none;stroke-width:0.5291667;stroke-linecap:butt;stroke-linejoin:miter;stroke-miterlimit:4;stroke-dasharray:none;stroke-dashoffset:0;stroke-opacity:1;marker:none;color-rendering:auto;image-rendering:auto;shape-rendering:auto;text-rendering:auto;enable-background:accumulate"
           d="m 1138.4002,-91.09094 v 0.52896 h 3.1753 v -0.52896 z"
           id="path3580"
           inkscape:connector-curvature="0" />
        <path
           sodipodi:nodetypes="cccc"
           inkscape:connector-curvature="0"
           id="path3582"
           d="m 1157.1949,-92.59014 -0.9922,0.99219 -0.9921,-0.99219 z"
           style="color:#000000;display:inline;overflow:visible;visibility:visible;fill:#3584e4;fill-opacity:1;stroke:none;stroke-width:0.79374999;marker:none;enable-background:accumulate" />
      </g>
      <rect
         ry="12.882316"
         rx="12.882316"
         y="188.13226"
         x="151.54803"
         height="25.764631"
         width="154.58777"
         id="rect4421"
         style="color:#000000;display:inline;overflow:visible;visibility:visible;fill:#ffffff;fill-opacity:1;fill-rule:nonzero;stroke:#3584e4;stroke-width:1.59675741;stroke-miterlimit:4;stroke-dasharray:none;stroke-opacity:1;marker:none;enable-background:new" />
      <ellipse
         cy="199.44058"
         cx="289.02628"
         id="ellipse4423"
         style="color:#000000;display:inline;overflow:visible;visibility:visible;fill:none;stroke:#3584e4;stroke-width:2.15308404;stroke-linecap:round;stroke-linejoin:round;stroke-miterlimit:4;stroke-dasharray:none;stroke-dashoffset:0;stroke-opacity:1;marker:none;enable-background:new"
         rx="4.8499498"
         ry="4.844439" />
      <path
         sodipodi:nodetypes="cc"
         id="path4425"
         d="m 292.79837,203.20847 4.3111,4.30615"
         style="color:#000000;display:inline;overflow:visible;visibility:visible;fill:none;stroke:#3584e4;stroke-width:2.15308404;stroke-linecap:round;stroke-linejoin:round;stroke-miterlimit:4;stroke-dasharray:none;stroke-dashoffset:0;stroke-opacity:1;marker:none;enable-background:new"
         inkscape:connector-curvature="0" />
      <rect
         style="color:#000000;display:inline;overflow:visible;visibility:visible;opacity:0.70638272;fill:none;stroke:none;stroke-width:1.06450498;marker:none;enable-background:accumulate"
         id="rect4427"
         width="17.224676"
         height="17.224672"
         x="282.02078"
         y="192.44307" />
      <path
         sodipodi:nodetypes="cssc"
         inkscape:connector-curvature="0"
         id="path4429"
         d="M -9.815371,240.06235 H 31.34993 c 3.681522,0 6.645268,2.9639 6.645268,6.64551 v 160.29786"
         style="color:#000000;display:inline;overflow:visible;visibility:visible;fill:none;stroke:#98c1f1;stroke-width:0.54456186;stroke-linecap:square;stroke-linejoin:miter;stroke-miterlimit:4;stroke-dashoffset:0;stroke-opacity:1;marker:none;enable-background:new" />
      <text
         id="text4433"
         y="203.70821"
         x="163.67644"
         style="font-style:normal;font-variant:normal;font-weight:bold;font-stretch:normal;font-size:8.50488853px;line-height:0%;font-family:Cantarell;-inkscape-font-specification:'Cantarell Bold';text-align:start;letter-spacing:0px;word-spacing:0px;writing-mode:lr-tb;text-anchor:start;fill:#3584e4;fill-opacity:1;stroke:none;stroke-width:0.70874071"
         xml:space="preserve"><tspan
           style="font-size:9.92236996px;line-height:1.25;fill:#3584e4;fill-opacity:1;stroke-width:0.70874071"
           y="203.70821"
           x="163.67644"
           id="tspan4431"
           sodipodi:role="line">just type</tspan></text>
      <g
         id="g4455"
         transform="matrix(0.23929347,0,0,0.23929347,113.63622,143.11117)">
        <g
           id="g4437"
           transform="matrix(0.26785714,0,0,0.26785714,-482.48304,489.73394)"
           style="display:inline;stroke-width:0.93333334;enable-background:new">
          <circle
             style="display:inline;opacity:1;fill:#3584e4;fill-opacity:1;stroke:#3584e4;stroke-width:45.25252533;stroke-linecap:butt;stroke-linejoin:miter;stroke-miterlimit:4;stroke-dasharray:none;stroke-dashoffset:0;stroke-opacity:1;marker:none;marker-start:none;marker-mid:none;marker-end:none;paint-order:normal;enable-background:new"
             id="circle4435"
             cx="256"
             cy="43.999989"
             r="224" />
        </g>
        <path
           transform="translate(-477.91161,265.51965)"
           style="color:#000000;display:inline;overflow:visible;visibility:visible;opacity:1;vector-effect:none;fill:#ffffff;fill-opacity:1;fill-rule:nonzero;stroke:none;stroke-width:0.01129821px;stroke-linecap:butt;stroke-linejoin:miter;stroke-miterlimit:4;stroke-dasharray:none;stroke-dashoffset:0;stroke-opacity:1;marker:none;marker-start:none;marker-mid:none;marker-end:none;paint-order:normal;enable-background:accumulate"
           clip-path="url(#clipPath987-6)"
           d="m 38,176 v 4 l 10,8 v 8 l 8,8 h 4 v -4 l 6,-6 v -4 l 4,-4 v -10 z m -4,16 H 4 c 0,0 0.5090211,40.4419 0,40 l 20,18 v -6 l -4,-4 6,-6 h 4 l 4,4 0.12494,-8.4018 L 40,224 h 4 v -4 l 4,-4 v -6 L 43.727619,206.12499 34,206 v 8 h -4 l -4,-4 v -4 l 6,-6 h 6 v -4 z m 60,2 -6,6 v 4 h 6 v -2.14287 h 4 v 4.26786 L 96,208 H 86 v 4 h -4 v 6 h -8 v 8 h 10 v -4 h 8 v 2 l 4,4 h 2 v -2 l -2,-2 v -2 h 4 l 6,6 h 6 v 2 l -2,2 h -4 l 18,18 V 194 H 96 Z m 12,38 H 94 l -2,-2 H 78 l -8,8 v 8 l 8,8 h 6 l 4,4 v 2 l 2,2 v 12 l 14,14 h 8 v -30 l 4,-4 v -8 l -10,-10 z m -2,-12 h 4 l 6,6 h -4 z m -74,28 -4,4 v 10 l 8.12494,8.14285 L 34,296 h 8 v -8 l 6,-6 v -4 l 6,-6 v -4 l 4,-4 v -8 l -4,-4 h -8 l -4,-4 z"
           id="path4439"
           inkscape:connector-curvature="0"
           sodipodi:nodetypes="ccccccccccccccccccccccccccccccccccccccccccccccccccccccccccccccccccccccccccccccccccccccccccccccccccccccccccccccc" />
        <g
           style="display:inline;opacity:1;stroke:#98c1f1;enable-background:new"
           id="g4447"
           transform="matrix(0.33027944,0,0,0.33027944,-722.51179,363.54416)">
          <circle
             style="color:#000000;display:inline;overflow:visible;visibility:visible;opacity:0.66763006;fill:none;stroke:#98c1f1;stroke-width:16.92636299;stroke-linecap:butt;stroke-linejoin:round;stroke-miterlimit:4;stroke-dasharray:none;stroke-dashoffset:0;stroke-opacity:1;marker:none"
             id="circle4441"
             cx="883.60425"
             cy="372.21783"
             r="36.270779" />
          <circle
             style="color:#000000;display:inline;overflow:visible;visibility:visible;opacity:0.66763006;fill:none;stroke:#98c1f1;stroke-width:11.69271851;stroke-linecap:butt;stroke-linejoin:round;stroke-miterlimit:4;stroke-dasharray:none;stroke-dashoffset:0;stroke-opacity:1;marker:none"
             id="circle4443"
             cx="883.60431"
             cy="372.2179"
             r="68.971695" />
          <circle
             style="color:#000000;display:inline;overflow:visible;visibility:visible;opacity:0.66763006;fill:none;stroke:#98c1f1;stroke-width:5.99500418;stroke-linecap:butt;stroke-linejoin:round;stroke-miterlimit:4;stroke-dasharray:none;stroke-dashoffset:0;stroke-opacity:1;marker:none"
             id="circle4445"
             cx="883.60437"
             cy="372.21796"
             r="103.1213" />
        </g>
        <g
           style="display:inline;enable-background:new"
           id="g4453"
           transform="translate(-477.91161,277.51965)">
          <g
             id="g4451">
            <path
               inkscape:connector-curvature="0"
               d="m 47.589745,209.314 -47.7665216,46.36163 21.7759096,0.70244 c 0,0 -9.131831,18.96611 -9.131831,18.96611 -2.8097966,8.42939 9.834282,11.59041 11.941628,5.26838 0,0 8.42939,-18.96612 8.42939,-18.96612 l 15.453872,16.50755 z"
               id="path4449"
               sodipodi:nodetypes="cccssccc"
               style="color:#000000;display:inline;overflow:visible;visibility:visible;fill:#ffffff;fill-opacity:1;fill-rule:evenodd;stroke:#3584e4;stroke-width:6.060606;stroke-miterlimit:4;stroke-dasharray:none;stroke-opacity:1;marker:none;enable-background:new" />
          </g>
        </g>
      </g>
      <path
         style="color:#000000;font-style:normal;font-variant:normal;font-weight:normal;font-stretch:normal;font-size:medium;line-height:normal;font-family:sans-serif;font-variant-ligatures:normal;font-variant-position:normal;font-variant-caps:normal;font-variant-numeric:normal;font-variant-alternates:normal;font-feature-settings:normal;text-indent:0;text-align:start;text-decoration:none;text-decoration-line:none;text-decoration-style:solid;text-decoration-color:#000000;letter-spacing:normal;word-spacing:normal;text-transform:none;writing-mode:lr-tb;direction:ltr;text-orientation:mixed;dominant-baseline:auto;baseline-shift:baseline;text-anchor:start;white-space:normal;shape-padding:0;clip-rule:nonzero;display:inline;overflow:visible;visibility:visible;opacity:1;isolation:auto;mix-blend-mode:normal;color-interpolation:sRGB;color-interpolation-filters:linearRGB;solid-color:#000000;solid-opacity:1;vector-effect:none;fill:#3584e4;fill-opacity:1;fill-rule:nonzero;stroke:none;stroke-width:1.91434789;stroke-linecap:butt;stroke-linejoin:miter;stroke-miterlimit:4;stroke-dasharray:none;stroke-dashoffset:0;stroke-opacity:1;marker:none;color-rendering:auto;image-rendering:auto;shape-rendering:auto;text-rendering:auto;enable-background:new"
         d="m 3.5610543,334.48518 a 2.8715216,2.8715216 0 0 0 -2.87165794,2.8715 2.8715216,2.8715216 0 0 0 1.91434774,2.70377 v 15.65034 a 2.8715216,2.8715216 0 0 0 -1.91434774,2.70374 2.8715216,2.8715216 0 0 0 2.87165794,2.87152 2.8715216,2.8715216 0 0 0 2.4841302,-1.43577 H 22.13612 a 2.8715216,2.8715216 0 0 0 2.482761,1.43577 2.8715216,2.8715216 0 0 0 2.871384,-2.87152 2.8715216,2.8715216 0 0 0 -1.914348,-2.70374 v -15.65034 a 2.8715216,2.8715216 0 0 0 1.914348,-2.70377 2.8715216,2.8715216 0 0 0 -2.871384,-2.8715 2.8715216,2.8715216 0 0 0 -2.828083,2.3929 H 6.3918772 a 2.8715216,2.8715216 0 0 0 -2.8308229,-2.3929 z m 2.4841302,4.30724 H 22.13612 a 2.8715216,2.8715216 0 0 0 0.06303,0.10935 l -2.481116,2.48129 a 1.9143478,1.9143478 0 0 0 -0.84193,-0.1976 1.9143478,1.9143478 0 0 0 -1.850764,1.43575 h -5.868566 a 1.9143478,1.9143478 0 0 0 -1.8524095,-1.43575 1.9143478,1.9143478 0 0 0 -0.8424769,0.19677 l -2.4822115,-2.48218 a 2.8715216,2.8715216 0 0 0 0.065784,-0.10747 z m -1.5268185,1.35353 2.8752213,2.87525 a 1.9143478,1.9143478 0 0 0 -0.00276,0.0783 1.9143478,1.9143478 0 0 0 0.9570375,1.65588 v 6.26089 a 1.9143478,1.9143478 0 0 0 -0.9570375,1.65498 1.9143478,1.9143478 0 0 0 0.1973272,0.84266 l -2.4822101,2.48224 A 2.8715216,2.8715216 0 0 0 4.519722,355.7106 Z m 19.143204,0 v 15.56484 a 2.8715216,2.8715216 0 0 0 -0.587871,0.28369 l -2.481115,-2.48129 a 1.9143478,1.9143478 0 0 0 0.197328,-0.84173 1.9143478,1.9143478 0 0 0 -0.957312,-1.65587 v -6.26089 a 1.9143478,1.9143478 0 0 0 0.957312,-1.65498 1.9143478,1.9143478 0 0 0 0,-0.0795 z m -13.094577,4.38952 h 7.045127 a 1.9143478,1.9143478 0 0 0 0.30668,0.22007 v 6.26089 a 1.9143478,1.9143478 0 0 0 -0.893727,1.17636 h -5.86884 a 1.9143478,1.9143478 0 0 0 -0.894824,-1.17731 v -6.26089 a 1.9143478,1.9143478 0 0 0 0.305584,-0.21925 z m 0,9.57174 h 7.045127 a 1.9143478,1.9143478 0 0 0 1.263716,0.47863 1.9143478,1.9143478 0 0 0 0.07947,-0.003 l 2.936886,2.93697 a 2.8715216,2.8715216 0 0 0 -0.101402,0.41595 H 6.3918743 A 2.8715216,2.8715216 0 0 0 6.2877309,357.5213 l 2.9393534,-2.93929 a 1.9143478,1.9143478 0 0 0 0.079474,0.003 1.9143478,1.9143478 0 0 0 1.2628937,-0.4786 z"
         id="path4457"
         inkscape:connector-curvature="0" />
      <g
         transform="matrix(0.23929347,0,0,0.23929347,-188.11299,542.00865)"
         id="g4469">
        <path
           inkscape:connector-curvature="0"
           id="path4459"
           d="m 798.33622,-694.6285 c -4.70031,0 -8.48432,3.78401 -8.48432,8.48432 v 10.60536 74.23787 8.48433 c 0,4.70031 3.78401,8.48432 8.48432,8.48432 h 93.32756 c 4.70031,0 8.48432,-3.78401 8.48432,-8.48432 v -8.48433 -74.23787 -10.60536 c 0,-4.70031 -3.78401,-8.48432 -8.48432,-8.48432 z"
           style="display:inline;opacity:1;fill:#ffffff;fill-opacity:1;stroke:#3584e4;stroke-width:4;stroke-linecap:butt;stroke-linejoin:miter;stroke-miterlimit:4;stroke-dasharray:none;stroke-dashoffset:0;stroke-opacity:1;marker:none;marker-start:none;marker-mid:none;marker-end:none;paint-order:normal;enable-background:new" />
        <rect
           style="display:inline;opacity:1;vector-effect:none;fill:#3584e4;fill-opacity:1;stroke:none;stroke-width:0.01121096px;stroke-linecap:butt;stroke-linejoin:miter;stroke-miterlimit:4;stroke-dasharray:none;stroke-dashoffset:0;stroke-opacity:1;marker:none;marker-start:none;marker-mid:none;marker-end:none;paint-order:normal;enable-background:new"
           id="rect4461"
           width="96"
           height="87.999969"
           x="797"
           y="599.48041"
           rx="4"
           ry="3.9999695"
           transform="scale(1,-1)" />
        <g
           style="display:inline;fill:#ffffff;enable-background:new"
           transform="translate(779,-877.48042)"
           id="g4467">
          <path
             inkscape:connector-curvature="0"
             id="path4463"
             style="font-style:normal;font-variant:normal;font-weight:bold;font-stretch:normal;font-size:medium;line-height:1.25;font-family:'Source Code Pro';-inkscape-font-specification:'Source Code Pro, Bold';font-variant-ligatures:normal;font-variant-caps:normal;font-variant-numeric:normal;font-feature-settings:normal;text-align:start;letter-spacing:0px;word-spacing:0px;writing-mode:lr-tb;text-anchor:start;fill:#ffffff;fill-opacity:1;stroke:none;stroke-width:0.24999999"
             d="M 44.012301,210.88755 30,203.27182 V 208 l 9.710724,4.62951 v 0.1422 L 30,218 v 4.72818 l 14.012301,-8.21451 z"
             sodipodi:nodetypes="ccccccccc" />
          <path
             sodipodi:nodetypes="ccccc"
             inkscape:connector-curvature="0"
             id="path4465"
             style="font-style:normal;font-variant:normal;font-weight:bold;font-stretch:normal;font-size:medium;line-height:1.25;font-family:'Source Code Pro';-inkscape-font-specification:'Source Code Pro, Bold';font-variant-ligatures:normal;font-variant-caps:normal;font-variant-numeric:normal;font-feature-settings:normal;text-align:start;letter-spacing:0px;word-spacing:0px;writing-mode:lr-tb;text-anchor:start;fill:#ffffff;fill-opacity:1;stroke:none;stroke-width:0.24999999"
             d="m 47.999998,226 2e-6,4 h 16.00001 l -2e-6,-4 z" />
        </g>
      </g>
      <g
         transform="matrix(0.23929347,0,0,0.23929347,-1.5012585,250.49287)"
         style="display:inline;enable-background:new"
         id="g4487">
        <rect
           ry="8.9127073"
           rx="8.9127073"
           y="173.8392"
           x="14.980104"
           height="120.32159"
           width="98.039749"
           id="rect4471"
           style="opacity:1;vector-effect:none;fill:#ffffff;fill-opacity:1;stroke:#3584e4;stroke-width:6.31358576;stroke-linecap:butt;stroke-linejoin:miter;stroke-miterlimit:4;stroke-dasharray:none;stroke-dashoffset:0;stroke-opacity:1;marker:none;marker-start:none;marker-mid:none;marker-end:none;paint-order:normal" />
        <path
           style="display:inline;opacity:1;vector-effect:none;fill:#3584e4;fill-opacity:1;stroke:none;stroke-width:0.0119126px;stroke-linecap:butt;stroke-linejoin:miter;stroke-miterlimit:4;stroke-dasharray:none;stroke-dashoffset:0;stroke-opacity:1;marker:none;marker-start:none;marker-mid:none;marker-end:none;paint-order:normal;enable-background:new"
           d="m 525,430.125 c -2.216,0 -4,1.784 -4,4 V 463 h 80 v -28.875 c 0,-2.216 -1.784,-4 -4,-4 z M 521,465 v 30 h 80 v -30 z m 0,32 v 29 c 0,2.216 1.784,4 4,4 h 72 c 2.216,0 4,-1.784 4,-4 v -29 z"
           transform="translate(-497,-247)"
           id="path4473"
           inkscape:connector-curvature="0"
           sodipodi:nodetypes="ssccsssccccccsssscc" />
        <g
           id="g4481">
          <path
             inkscape:connector-curvature="0"
             style="opacity:1;vector-effect:none;fill:#ffffff;fill-opacity:1;stroke:none;stroke-width:0.01184966px;stroke-linecap:butt;stroke-linejoin:miter;stroke-miterlimit:4;stroke-dasharray:none;stroke-dashoffset:0;stroke-opacity:1;marker:none;marker-start:none;marker-mid:none;marker-end:none;paint-order:normal"
             d="m 552,443 c -1.662,0 -3,1.338 -3,3 v 4 1 h 4 0.0312 l -0.0156,-2 H 569 v 2 H 569.0312 573 v -1 -4 c 0,-2 -1.338,-3 -3,-3 z"
             transform="translate(-497,-247)"
             id="path4475" />
          <path
             id="path4477"
             d="m 55,229.33334 c -1.662,0 -3,1.338 -3,3 v 4 1 h 4 0.0312 l -0.0156,-2 H 72 v 2 H 72.0312 76 v -1 -4 c 0,-2 -1.338,-3 -3,-3 z"
             style="opacity:1;vector-effect:none;fill:#ffffff;fill-opacity:1;stroke:none;stroke-width:0.01184966px;stroke-linecap:butt;stroke-linejoin:miter;stroke-miterlimit:4;stroke-dasharray:none;stroke-dashoffset:0;stroke-opacity:1;marker:none;marker-start:none;marker-mid:none;marker-end:none;paint-order:normal"
             inkscape:connector-curvature="0" />
          <path
             inkscape:connector-curvature="0"
             style="opacity:1;vector-effect:none;fill:#ffffff;fill-opacity:1;stroke:none;stroke-width:0.01184966px;stroke-linecap:butt;stroke-linejoin:miter;stroke-miterlimit:4;stroke-dasharray:none;stroke-dashoffset:0;stroke-opacity:1;marker:none;marker-start:none;marker-mid:none;marker-end:none;paint-order:normal"
             d="m 55,259.63639 c -1.662,0 -3,1.338 -3,3 v 4 1 h 4 0.0312 l -0.0156,-2 H 72 v 2 H 72.0312 76 v -1 -4 c 0,-2 -1.338,-3 -3,-3 z"
             id="path4479" />
        </g>
        <g
           transform="matrix(0.26458333,0,0,0.26458333,480.74788,-402.04374)"
           style="display:inline;enable-background:new"
           id="g4483" />
        <g
           transform="matrix(0.26458333,0,0,0.26458333,480.74788,-370.04374)"
           style="display:inline;enable-background:new"
           id="g4485" />
      </g>
      <path
         id="path3536"
         style="display:inline;fill:none;stroke:#3584e4;stroke-width:2.96694541;stroke-linecap:square;stroke-linejoin:miter;stroke-miterlimit:4;stroke-dasharray:none;stroke-opacity:1"
         d="M 72.914695,172.44359 H -4.2254773 c -3.499863,0 -6.3370397,2.83717 -6.3370397,6.33702"
         inkscape:connector-curvature="0"
         sodipodi:nodetypes="ccc" />
    </g>
    <path
       style="color:#000000;display:inline;overflow:visible;visibility:visible;fill:none;stroke:#3584e4;stroke-width:1;stroke-miterlimit:4;stroke-dasharray:2, 4;stroke-dashoffset:0;stroke-opacity:1;marker:none;enable-background:accumulate"
       d="m 996.6892,192.1079 c -392.30909,0 -446.74501,209.41354 -951.499982,209.41354"
       id="path4956"
       inkscape:connector-curvature="0"
       sodipodi:nodetypes="cc" />
  </g>
</svg>
