<?xml version="1.0" encoding="UTF-8" standalone="no"?>
<svg
   xmlns:dc="http://purl.org/dc/elements/1.1/"
   xmlns:cc="http://creativecommons.org/ns#"
   xmlns:rdf="http://www.w3.org/1999/02/22-rdf-syntax-ns#"
   xmlns:svg="http://www.w3.org/2000/svg"
   xmlns="http://www.w3.org/2000/svg"
   xmlns:sodipodi="http://sodipodi.sourceforge.net/DTD/sodipodi-0.dtd"
   xmlns:inkscape="http://www.inkscape.org/namespaces/inkscape"
   width="16"
   height="16"
   version="1.1"
   id="svg8"
   sodipodi:docname="edit-find-symbolic.svg"
   inkscape:version="0.92.4 5da689c313, 2019-01-14">
  <metadata
     id="metadata14">
    <rdf:RDF>
      <cc:Work
         rdf:about="">
        <dc:format>image/svg+xml</dc:format>
        <dc:type
           rdf:resource="http://purl.org/dc/dcmitype/StillImage" />
      </cc:Work>
    </rdf:RDF>
  </metadata>
  <defs
     id="defs12" />
  <sodipodi:namedview
     pagecolor="#ffffff"
     bordercolor="#666666"
     borderopacity="1"
     objecttolerance="10"
     gridtolerance="10"
     guidetolerance="10"
     inkscape:pageopacity="0"
     inkscape:pageshadow="2"
     inkscape:window-width="640"
     inkscape:window-height="480"
     id="namedview10"
     showgrid="false"
     inkscape:zoom="55.125"
     inkscape:cx="4.1904762"
     inkscape:cy="7.9637188"
     inkscape:current-layer="svg8" />
  <g
     color="#000"
     font-weight="400"
     font-family="sans-serif"
     white-space="normal"
     fill="#474747"
     id="g6">
    <path
       style="line-height:normal;font-variant-ligatures:normal;font-variant-position:normal;font-variant-caps:normal;font-variant-numeric:normal;font-variant-alternates:normal;font-feature-settings:normal;text-indent:0;text-align:start;text-decoration-line:none;text-decoration-style:solid;text-decoration-color:#000;text-transform:none;text-orientation:mixed;shape-padding:0;isolation:auto;mix-blend-mode:normal;marker:none"
       d="M 6.5078125 1 C 3.4798125 1 1.0019531 3.474 1.0019531 6.5 C 1.0019531 9.526 3.4798125 12 6.5078125 12 C 7.6626979 12 8.7353243 11.638528 9.6230469 11.025391 L 13.308594 14.707031 A 1 1 0 1 0 14.722656 13.292969 L 11.039062 9.6132812 C 11.652445 8.7265765 12.013672 7.6537041 12.013672 6.5 C 12.013672 3.474 9.5358125 1 6.5078125 1 z M 6.5078125 3 A 3.488 3.488 0 0 1 10.013672 6.5 C 10.013672 8.444 8.4558125 10 6.5078125 10 A 3.488 3.488 0 0 1 3.0019531 6.5 C 3.0019531 4.556 4.5588125 3 6.5078125 3 z "
       id="path2" />
  </g>
</svg>
